# xmcd
#
# Track frame offsets: 
#        150
#        25390
#        51686
#        88532
#        103895
#        143245
#        184075
#        202336
#
# Disc length: 2993 seconds
#
# Revision: 6
# Processed by: cddbd v1.5.2PL0 Copyright (c) Steve Scherf et al.
# Submitted via: ExactAudioCopyFreeDBPlugin 1.0
#
DISCID=7c0baf08
DTITLE=CAMARÓN DE LA ISLA - París 1987
DYEAR=2001
DGENRE=Folklore
TTITLE0=Tus ojillos negros
TTITLE1=Sonidos negros
TTITLE2=Pañuelo a rayas
TTITLE3=Como el agua
TTITLE4=Yo pienso como el ciprés
TTITLE5=Pañuelo a rayas 2
TTITLE6=Más duro que el acero
TTITLE7=Tiritando de frío
EXTD=©Narada Media\n4650 N. Port Washington Road\nMilwaukee, WI 53212-
EXTD=1063\nEXTD=nUSA\n\nTel. 414-9nUSA\n\nTel. 414-961-8350 YEAR: 2001
EXTD=ID3G: 115
EXTT0=Guarânia
EXTT1=Guarânia
EXTT2=Xote
EXTT3=Bolero
EXTT4=french musette waltz
EXTT5=1930's one-step
EXTT6=Balanço
EXTT7=Argentinian waltz
PLAYORDER=
